<svg xmlns="http://www.w3.org/2000/svg" width="390" height="844" viewBox="0 0 390 844">
  <defs>
    <radialGradient id="bg"><stop stop-color="#163746"/><stop offset="1" stop-color="#07141e"/></radialGradient>
    <linearGradient id="mint"><stop stop-color="#a1ffe2"/><stop offset="1" stop-color="#4de5c6"/></linearGradient>
    <g id="cube" fill="none" stroke="#71959f" stroke-width="1.4" stroke-linejoin="round">
      <path d="M12 17 33 7 54 17 54 38 33 48 12 38Z M12 17 33 27 54 17 M33 27V48"/>
      <path d="M33 7V28 M12 38 33 28 54 38" stroke-dasharray="2 3" opacity=".4"/>
    </g>
    <g id="xy"><use href="#cube"/><path d="M12 17 33 7 54 17 33 27Z" fill="#78f4d344" stroke="#78f4d3" stroke-width="1.5"/><path d="M46 17C43 8 21 9 20 18 M20 18l-1-5 M20 18l5-2" fill="none" stroke="#d0ffef" stroke-width="2" stroke-linecap="round" stroke-linejoin="round"/></g>
    <g id="xz"><use href="#cube"/><path d="M12 17 33 27 33 48 12 38Z" fill="#8ccaff44" stroke="#8ccaff" stroke-width="1.5"/><path d="M26 39C18 42 10 28 19 24 M19 24l-1 5 M19 24l-5 1" fill="none" stroke="#d6ecff" stroke-width="2" stroke-linecap="round" stroke-linejoin="round"/></g>
    <g id="yz"><use href="#cube"/><path d="M33 27 54 17 54 38 33 48Z" fill="#efc18a44" stroke="#efc18a" stroke-width="1.5"/><path d="M49 23C41 18 32 32 40 39 M40 39l-5-2 M40 39l1-5" fill="none" stroke="#ffe7c5" stroke-width="2" stroke-linecap="round" stroke-linejoin="round"/></g>
  </defs>
  <rect width="390" height="844" rx="22" fill="url(#bg)"/>
  <g font-family="system-ui, sans-serif" fill="#e9f9fc">
    <text x="22" y="31" fill="#8daab5" font-size="11">得分</text><text x="22" y="56" font-size="25">000320</text>
    <text x="145" y="31" fill="#8daab5" font-size="11">消除层数</text><text x="145" y="54" font-size="18">02</text>
    <circle cx="352" cy="40" r="22" fill="none" stroke="#38535d"/><path d="M345 32v17m9-17v17" stroke="#cbe7ec" stroke-width="5"/>
    <path d="M16 68H374" stroke="#23434f"/>
    <text x="24" y="96" fill="#a4ddda" font-size="12">6 × 6 × 12</text><text x="290" y="96" fill="#8daab5" font-size="12">下一块</text>
    <g fill="none" stroke="#4c7885" stroke-width="1.5" stroke-linejoin="round">
      <path d="M77 215 208 146 316 209 316 526 187 599 77 529Z M77 215 187 281 316 209 M187 281V599"/>
      <path d="M208 146V462 M77 529 208 462 316 526" stroke-dasharray="4 5" opacity=".45"/>
      <path d="M77 477 187 546 316 474 M77 426 187 493 316 422 M77 373 187 441 316 369" stroke="#315967" opacity=".65"/>
    </g>
    <g fill="#78f4d3" fill-opacity="1" stroke="#8fffe0" stroke-linejoin="round">
      <path d="M140 281 170 265 198 281 168 298Z M140 281V310L168 327V298 M168 298 198 281V310L168 327Z"/>
      <path d="M170 265 200 249 228 265 198 281Z M198 281 228 265V294L198 310Z"/>
    </g>
    <g fill="none" stroke="#b2ffe5" stroke-dasharray="4 4" stroke-linejoin="round"><path d="M140 463 170 447 198 463 198 493 168 510 140 493Z M140 463 168 480 198 463 M168 480V510"/></g>
    <g stroke-width="1.1" stroke-linejoin="round">
      <path d="M80 499 110 483 139 500 109 517Z M80 499V528L109 546V517 M109 517 139 500V529L109 546Z" fill="#427d95" stroke="#80bed1"/>
      <path d="M110 483 140 467 169 484 139 500Z M139 500 169 484V513L139 529Z" fill="#526fa5" stroke="#96b0e5"/>
      <path d="M169 455 199 439 228 456 198 473Z M169 455V485L198 502V473 M198 473 228 456V486L198 502Z" fill="#5a8d9a" stroke="#9cd4d8"/>
    </g>
    <text x="108" y="507" fill="#072e43" font-size="10">1</text><text x="197" y="464" fill="#072e43" font-size="10">2</text><text x="335" y="500" fill="#78f4d3" font-size="10">2层</text><text x="335" y="529" fill="#9bbac9" font-size="10">1层</text>
    <text x="18" y="643" fill="#70909e" font-size="11">拖动方块 · 落点 1 / 2层</text><text x="305" y="643" fill="#70909e" font-size="11">12 / 432</text>
    <path d="M16 656H374" stroke="#23434f"/>
    <g fill="#112b38" stroke="#2a4651"><rect x="16" y="668" width="60" height="112" rx="12"/><rect x="85" y="668" width="91" height="64" rx="12"/><rect x="183" y="668" width="91" height="64" rx="12"/><rect x="281" y="668" width="91" height="64" rx="12"/><rect x="85" y="736" width="91" height="44" rx="10"/><rect x="183" y="736" width="91" height="44" rx="10"/><rect x="281" y="736" width="91" height="44" rx="10"/></g>
    <rect x="19" y="671" width="54" height="52" rx="9" fill="#24534f"/><text x="46" y="704" text-anchor="middle" fill="#c5ffe9" font-size="13">移动</text><text x="46" y="756" text-anchor="middle" fill="#91adb8" font-size="13">观察</text>
    <use href="#xy" transform="translate(107 666) scale(.75)"/><use href="#xz" transform="translate(205 666) scale(.75)"/><use href="#yz" transform="translate(303 666) scale(.75)"/>
    <text x="130" y="724" text-anchor="middle" font-size="11">XY · 平转</text><text x="228" y="724" text-anchor="middle" font-size="11">XZ · 前后转</text><text x="326" y="724" text-anchor="middle" font-size="11">YZ · 左右转</text>
    <g fill="#a5d3d8" font-size="11" text-anchor="middle"><text x="130" y="763">↶ 反转</text><text x="228" y="763">↶ 反转</text><text x="326" y="763">↶ 反转</text></g>
    <rect x="16" y="788" width="174" height="48" rx="13" fill="#203b50" stroke="#4f6483"/><text x="103" y="817" text-anchor="middle" font-size="15">颠倒容器 180°</text>
    <rect x="198" y="788" width="174" height="48" rx="13" fill="url(#mint)"/><text x="285" y="817" text-anchor="middle" fill="#07382f" font-size="15" font-weight="700">↓ 直接落下</text>
  </g>
</svg>
