<svg xmlns="http://www.w3.org/2000/svg" width="390" height="844" viewBox="0 0 390 844"><rect width="390" height="844" fill="#f7f2e8"/><g font-family="Inter, PingFang SC, Microsoft YaHei, sans-serif"><rect x="20" y="22" width="44" height="44" rx="18" fill="#e9ecdd"/><text x="42" y="50" fill="#183c34" font-size="26" text-anchor="middle" font-weight="600">‹</text><text x="195" y="50" fill="#183c34" font-size="17" text-anchor="middle" font-weight="700">选择关卡</text><text x="24" y="115" fill="#183c34" font-size="25" text-anchor="start" font-weight="700">一步一步，留出余地。</text><text x="24" y="150" fill="#78887e" font-size="13" text-anchor="start" font-weight="400">已通关 5 / 30 · 已收集 15 颗星</text><rect x="24" y="176" width="342" height="72" rx="15" fill="#efe4d3"/><text x="40" y="203" fill="#183c34" font-size="14" text-anchor="start" font-weight="700">开发模式 · 全关可试玩</text><text x="40" y="226" fill="#78887e" font-size="11" text-anchor="start" font-weight="400">独立试玩，不计入真实进度与纪录</text><text x="24" y="278" fill="#183c34" font-size="20" text-anchor="start" font-weight="700">初识积木</text><rect x="24" y="297" width="62" height="62" rx="14" fill="#e9ecdd"/><text x="55" y="325" fill="#183c34" font-size="19" text-anchor="middle" font-weight="700">01</text><text x="55" y="346" fill="#78887e" font-size="9" text-anchor="middle" font-weight="400">试玩</text><rect x="94" y="297" width="62" height="62" rx="14" fill="#e9ecdd"/><text x="125" y="325" fill="#183c34" font-size="19" text-anchor="middle" font-weight="700">02</text><text x="125" y="346" fill="#78887e" font-size="9" text-anchor="middle" font-weight="400">试玩</text><rect x="164" y="297" width="62" height="62" rx="14" fill="#e9ecdd"/><text x="195" y="325" fill="#183c34" font-size="19" text-anchor="middle" font-weight="700">03</text><text x="195" y="346" fill="#78887e" font-size="9" text-anchor="middle" font-weight="400">试玩</text><rect x="234" y="297" width="62" height="62" rx="14" fill="#e9ecdd"/><text x="265" y="325" fill="#183c34" font-size="19" text-anchor="middle" font-weight="700">04</text><text x="265" y="346" fill="#78887e" font-size="9" text-anchor="middle" font-weight="400">试玩</text><rect x="304" y="297" width="62" height="62" rx="14" fill="#e9ecdd"/><text x="335" y="325" fill="#183c34" font-size="19" text-anchor="middle" font-weight="700">05</text><text x="335" y="346" fill="#78887e" font-size="9" text-anchor="middle" font-weight="400">试玩</text><rect x="24" y="367" width="62" height="62" rx="14" fill="#183c34"/><text x="55" y="395" fill="white" font-size="19" text-anchor="middle" font-weight="700">06</text><text x="55" y="416" fill="white" font-size="9" text-anchor="middle" font-weight="400">试玩</text><rect x="94" y="367" width="62" height="62" rx="14" fill="#e9ecdd"/><text x="125" y="395" fill="#183c34" font-size="19" text-anchor="middle" font-weight="700">07</text><text x="125" y="416" fill="#78887e" font-size="9" text-anchor="middle" font-weight="400">试玩</text><rect x="164" y="367" width="62" height="62" rx="14" fill="#e9ecdd"/><text x="195" y="395" fill="#183c34" font-size="19" text-anchor="middle" font-weight="700">08</text><text x="195" y="416" fill="#78887e" font-size="9" text-anchor="middle" font-weight="400">试玩</text><rect x="234" y="367" width="62" height="62" rx="14" fill="#e9ecdd"/><text x="265" y="395" fill="#183c34" font-size="19" text-anchor="middle" font-weight="700">09</text><text x="265" y="416" fill="#78887e" font-size="9" text-anchor="middle" font-weight="400">试玩</text><rect x="304" y="367" width="62" height="62" rx="14" fill="#e9ecdd"/><text x="335" y="395" fill="#183c34" font-size="19" text-anchor="middle" font-weight="700">10</text><text x="335" y="416" fill="#78887e" font-size="9" text-anchor="middle" font-weight="400">试玩</text><text x="24" y="458" fill="#183c34" font-size="20" text-anchor="start" font-weight="700">取舍之间</text><rect x="24" y="477" width="62" height="62" rx="14" fill="#e9ecdd"/><text x="55" y="505" fill="#183c34" font-size="19" text-anchor="middle" font-weight="700">11</text><text x="55" y="526" fill="#78887e" font-size="9" text-anchor="middle" font-weight="400">试玩</text><rect x="94" y="477" width="62" height="62" rx="14" fill="#e9ecdd"/><text x="125" y="505" fill="#183c34" font-size="19" text-anchor="middle" font-weight="700">12</text><text x="125" y="526" fill="#78887e" font-size="9" text-anchor="middle" font-weight="400">试玩</text><rect x="164" y="477" width="62" height="62" rx="14" fill="#e9ecdd"/><text x="195" y="505" fill="#183c34" font-size="19" text-anchor="middle" font-weight="700">13</text><text x="195" y="526" fill="#78887e" font-size="9" text-anchor="middle" font-weight="400">试玩</text><rect x="234" y="477" width="62" height="62" rx="14" fill="#e9ecdd"/><text x="265" y="505" fill="#183c34" font-size="19" text-anchor="middle" font-weight="700">14</text><text x="265" y="526" fill="#78887e" font-size="9" text-anchor="middle" font-weight="400">试玩</text><rect x="304" y="477" width="62" height="62" rx="14" fill="#e9ecdd"/><text x="335" y="505" fill="#183c34" font-size="19" text-anchor="middle" font-weight="700">15</text><text x="335" y="526" fill="#78887e" font-size="9" text-anchor="middle" font-weight="400">试玩</text><rect x="24" y="547" width="62" height="62" rx="14" fill="#e9ecdd"/><text x="55" y="575" fill="#183c34" font-size="19" text-anchor="middle" font-weight="700">16</text><text x="55" y="596" fill="#78887e" font-size="9" text-anchor="middle" font-weight="400">试玩</text><rect x="94" y="547" width="62" height="62" rx="14" fill="#e9ecdd"/><text x="125" y="575" fill="#183c34" font-size="19" text-anchor="middle" font-weight="700">17</text><text x="125" y="596" fill="#78887e" font-size="9" text-anchor="middle" font-weight="400">试玩</text><rect x="164" y="547" width="62" height="62" rx="14" fill="#e9ecdd"/><text x="195" y="575" fill="#183c34" font-size="19" text-anchor="middle" font-weight="700">18</text><text x="195" y="596" fill="#78887e" font-size="9" text-anchor="middle" font-weight="400">试玩</text><rect x="234" y="547" width="62" height="62" rx="14" fill="#e9ecdd"/><text x="265" y="575" fill="#183c34" font-size="19" text-anchor="middle" font-weight="700">19</text><text x="265" y="596" fill="#78887e" font-size="9" text-anchor="middle" font-weight="400">试玩</text><rect x="304" y="547" width="62" height="62" rx="14" fill="#e9ecdd"/><text x="335" y="575" fill="#183c34" font-size="19" text-anchor="middle" font-weight="700">20</text><text x="335" y="596" fill="#78887e" font-size="9" text-anchor="middle" font-weight="400">试玩</text><text x="24" y="638" fill="#183c34" font-size="20" text-anchor="start" font-weight="700">空间大师</text><rect x="24" y="657" width="62" height="62" rx="14" fill="#e9ecdd"/><text x="55" y="685" fill="#183c34" font-size="19" text-anchor="middle" font-weight="700">21</text><text x="55" y="706" fill="#78887e" font-size="9" text-anchor="middle" font-weight="400">试玩</text><rect x="94" y="657" width="62" height="62" rx="14" fill="#e9ecdd"/><text x="125" y="685" fill="#183c34" font-size="19" text-anchor="middle" font-weight="700">22</text><text x="125" y="706" fill="#78887e" font-size="9" text-anchor="middle" font-weight="400">试玩</text><rect x="164" y="657" width="62" height="62" rx="14" fill="#e9ecdd"/><text x="195" y="685" fill="#183c34" font-size="19" text-anchor="middle" font-weight="700">23</text><text x="195" y="706" fill="#78887e" font-size="9" text-anchor="middle" font-weight="400">试玩</text><rect x="234" y="657" width="62" height="62" rx="14" fill="#e9ecdd"/><text x="265" y="685" fill="#183c34" font-size="19" text-anchor="middle" font-weight="700">24</text><text x="265" y="706" fill="#78887e" font-size="9" text-anchor="middle" font-weight="400">试玩</text><rect x="304" y="657" width="62" height="62" rx="14" fill="#e9ecdd"/><text x="335" y="685" fill="#183c34" font-size="19" text-anchor="middle" font-weight="700">25</text><text x="335" y="706" fill="#78887e" font-size="9" text-anchor="middle" font-weight="400">试玩</text><rect x="24" y="727" width="62" height="62" rx="14" fill="#e9ecdd"/><text x="55" y="755" fill="#183c34" font-size="19" text-anchor="middle" font-weight="700">26</text><text x="55" y="776" fill="#78887e" font-size="9" text-anchor="middle" font-weight="400">试玩</text><rect x="94" y="727" width="62" height="62" rx="14" fill="#e9ecdd"/><text x="125" y="755" fill="#183c34" font-size="19" text-anchor="middle" font-weight="700">27</text><text x="125" y="776" fill="#78887e" font-size="9" text-anchor="middle" font-weight="400">试玩</text><rect x="164" y="727" width="62" height="62" rx="14" fill="#e9ecdd"/><text x="195" y="755" fill="#183c34" font-size="19" text-anchor="middle" font-weight="700">28</text><text x="195" y="776" fill="#78887e" font-size="9" text-anchor="middle" font-weight="400">试玩</text><rect x="234" y="727" width="62" height="62" rx="14" fill="#e9ecdd"/><text x="265" y="755" fill="#183c34" font-size="19" text-anchor="middle" font-weight="700">29</text><text x="265" y="776" fill="#78887e" font-size="9" text-anchor="middle" font-weight="400">试玩</text><rect x="304" y="727" width="62" height="62" rx="14" fill="#e9ecdd"/><text x="335" y="755" fill="#183c34" font-size="19" text-anchor="middle" font-weight="700">30</text><text x="335" y="776" fill="#78887e" font-size="9" text-anchor="middle" font-weight="400">试玩</text></g></svg>