{"asset":{"version":"2.0","generator":"Night Overwatch original procedural source"},"scene":0,"scenes":[{"name":"beacon","nodes":[0,1,2]}],"nodes":[{"mesh":0,"scale":[0.9,0.15,0.9]},{"mesh":0,"scale":[0.18,1.6,0.18],"translation":[0,0.3,0]},{"mesh":0,"scale":[0.5,0.2,0.5],"translation":[0,3.5,0]}],"meshes":[{"primitives":[{"attributes":{"POSITION":0},"indices":1,"material":0}]}],"materials":[{"pbrMetallicRoughness":{"baseColorFactor":[0.5,0.8,0.7,1],"metallicFactor":0,"roughnessFactor":1},"doubleSided":true}],"buffers":[{"byteLength":168,"uri":"data:application/octet-stream;base64,"}],"bufferViews":[{"buffer":0,"byteOffset":0,"byteLength":96,"target":34962},{"buffer":0,"byteOffset":96,"byteLength":72,"target":34963}],"accessors":[{"bufferView":0,"componentType":5126,"count":8,"type":"VEC3","min":[-1,0,-1],"max":[1,2,1]},{"bufferView":1,"componentType":5123,"count":36,"type":"SCALAR"}]}