<svg xmlns="http://www.w3.org/2000/svg" width="390" height="844" viewBox="0 0 390 844"><title>三块选两块 · home</title><defs><filter id="shadow" x="-35%" y="-35%" width="170%" height="180%"><feDropShadow dx="0" dy="10" stdDeviation="10" flood-color="#284537" flood-opacity=".09"/></filter><pattern id="speckles" width="42" height="42" patternUnits="userSpaceOnUse"><circle cx="11" cy="23" r=".65" fill="#CABFA9" opacity=".3"/></pattern></defs><rect width="390" height="844" fill="#F7F2E8"/><rect width="390" height="844" fill="url(#speckles)"/><g font-family="Inter, PingFang SC, Microsoft YaHei, sans-serif"><text x="195" y="66" font-size="12" fill="#78887E" font-weight="500" text-anchor="middle" letter-spacing="2">一场刚刚好的取舍</text><text x="195" y="125" font-size="39" fill="#183C34" font-weight="800" text-anchor="middle">三块选两块</text><text x="195" y="158" font-size="14" fill="#78887E" font-weight="500" text-anchor="middle">放下两块，给下一步留点空间</text><g filter="url(#shadow)"><rect x="67" y="213" width="256" height="226" rx="32" fill="#E8EBDC"/><rect x="87" y="233" width="39" height="39" rx="6" fill="#D8DFD0"/><rect x="131" y="233" width="39" height="39" rx="6" fill="#D8DFD0"/><rect x="175" y="233" width="39" height="39" rx="6" fill="#D8DFD0"/><rect x="219" y="233" width="39" height="39" rx="6" fill="#D8DFD0"/><rect x="263" y="233" width="39" height="39" rx="6" fill="#D8DFD0"/><rect x="87" y="277" width="39" height="39" rx="6" fill="#D8DFD0"/><rect x="131" y="277" width="39" height="39" rx="6" fill="#D8DFD0"/><rect x="175" y="277" width="39" height="39" rx="6" fill="#D8DFD0"/><rect x="219" y="277" width="39" height="39" rx="6" fill="#D8DFD0"/><rect x="263" y="277" width="39" height="39" rx="6" fill="#D8DFD0"/><rect x="87" y="321" width="39" height="39" rx="6" fill="#D8DFD0"/><rect x="131" y="321" width="39" height="39" rx="6" fill="#D8DFD0"/><rect x="175" y="321" width="39" height="39" rx="6" fill="#D8DFD0"/><rect x="219" y="321" width="39" height="39" rx="6" fill="#D8DFD0"/><rect x="263" y="321" width="39" height="39" rx="6" fill="#D8DFD0"/><rect x="87" y="365" width="39" height="39" rx="6" fill="#D8DFD0"/><rect x="131" y="365" width="39" height="39" rx="6" fill="#D8DFD0"/><rect x="175" y="365" width="39" height="39" rx="6" fill="#D8DFD0"/><rect x="219" y="365" width="39" height="39" rx="6" fill="#D8DFD0"/><rect x="263" y="365" width="39" height="39" rx="6" fill="#D8DFD0"/><rect x="87" y="280" width="39" height="39" rx="5" fill="#EB8968"/><rect x="87" y="277" width="39" height="36" rx="5" fill="#EB8968"/><path d="M93 282h27" stroke="white" stroke-opacity=".4" stroke-width="3" stroke-linecap="round"/><path d="M93 311h27" stroke="#183C34" stroke-opacity=".12" stroke-width="3" stroke-linecap="round"/><rect x="87" y="324" width="39" height="39" rx="5" fill="#EB8968"/><rect x="87" y="321" width="39" height="36" rx="5" fill="#EB8968"/><path d="M93 326h27" stroke="white" stroke-opacity=".4" stroke-width="3" stroke-linecap="round"/><path d="M93 355h27" stroke="#183C34" stroke-opacity=".12" stroke-width="3" stroke-linecap="round"/><rect x="131" y="324" width="39" height="39" rx="5" fill="#EB8968"/><rect x="131" y="321" width="39" height="36" rx="5" fill="#EB8968"/><path d="M137 326h27" stroke="white" stroke-opacity=".4" stroke-width="3" stroke-linecap="round"/><path d="M137 355h27" stroke="#183C34" stroke-opacity=".12" stroke-width="3" stroke-linecap="round"/><rect x="175" y="236" width="39" height="39" rx="5" fill="#57B7A4"/><rect x="175" y="233" width="39" height="36" rx="5" fill="#57B7A4"/><path d="M181 238h27" stroke="white" stroke-opacity=".4" stroke-width="3" stroke-linecap="round"/><path d="M181 267h27" stroke="#183C34" stroke-opacity=".12" stroke-width="3" stroke-linecap="round"/><rect x="219" y="236" width="39" height="39" rx="5" fill="#57B7A4"/><rect x="219" y="233" width="39" height="36" rx="5" fill="#57B7A4"/><path d="M225 238h27" stroke="white" stroke-opacity=".4" stroke-width="3" stroke-linecap="round"/><path d="M225 267h27" stroke="#183C34" stroke-opacity=".12" stroke-width="3" stroke-linecap="round"/><rect x="175" y="280" width="39" height="39" rx="5" fill="#57B7A4"/><rect x="175" y="277" width="39" height="36" rx="5" fill="#57B7A4"/><path d="M181 282h27" stroke="white" stroke-opacity=".4" stroke-width="3" stroke-linecap="round"/><path d="M181 311h27" stroke="#183C34" stroke-opacity=".12" stroke-width="3" stroke-linecap="round"/><rect x="219" y="280" width="39" height="39" rx="5" fill="#57B7A4"/><rect x="219" y="277" width="39" height="36" rx="5" fill="#57B7A4"/><path d="M225 282h27" stroke="white" stroke-opacity=".4" stroke-width="3" stroke-linecap="round"/><path d="M225 311h27" stroke="#183C34" stroke-opacity=".12" stroke-width="3" stroke-linecap="round"/><rect x="263" y="280" width="39" height="39" rx="5" fill="#E8BE55"/><rect x="263" y="277" width="39" height="36" rx="5" fill="#E8BE55"/><path d="M269 282h27" stroke="white" stroke-opacity=".4" stroke-width="3" stroke-linecap="round"/><path d="M269 311h27" stroke="#183C34" stroke-opacity=".12" stroke-width="3" stroke-linecap="round"/><rect x="263" y="324" width="39" height="39" rx="5" fill="#E8BE55"/><rect x="263" y="321" width="39" height="36" rx="5" fill="#E8BE55"/><path d="M269 326h27" stroke="white" stroke-opacity=".4" stroke-width="3" stroke-linecap="round"/><path d="M269 355h27" stroke="#183C34" stroke-opacity=".12" stroke-width="3" stroke-linecap="round"/><rect x="263" y="368" width="39" height="39" rx="5" fill="#E8BE55"/><rect x="263" y="365" width="39" height="36" rx="5" fill="#E8BE55"/><path d="M269 370h27" stroke="white" stroke-opacity=".4" stroke-width="3" stroke-linecap="round"/><path d="M269 399h27" stroke="#183C34" stroke-opacity=".12" stroke-width="3" stroke-linecap="round"/></g><circle cx="322" cy="203" r="30" fill="#F7F2E8" stroke="#183C34" stroke-width="2"/><text x="322" y="211" font-size="14" fill="#183C34" font-weight="800" text-anchor="middle">2 / 3</text><polygon points="57.0,263.6 59.45,269.2 65.4,269.9 60.85,274.1 62.25,279.7 57.0,276.55 51.75,279.7 53.15,274.1 48.6,269.9 54.55,269.2" fill="#57B7A4"/><polygon points="328.0,445.8 330.1,450.6 335.2,451.2 331.3,454.8 332.5,459.6 328.0,456.9 323.5,459.6 324.7,454.8 320.8,451.2 325.9,450.6" fill="#EB8968"/><path d="M55 398q-20 10-6 25M329 294q22-7 18-25" stroke="#E8BE55" stroke-width="3" fill="none" stroke-linecap="round"/><text x="195" y="488" font-size="12" fill="#78887E" font-weight="500" text-anchor="middle">当前进度</text><text x="195" y="519" font-size="19" fill="#183C34" font-weight="700" text-anchor="middle">第 04 关  ·  留点空间</text><rect x="30" y="551" width="330" height="58" rx="18" fill="#183C34"/><text x="195" y="588" font-size="18" fill="#FFFFFF" font-weight="700" text-anchor="middle">继续闯关  →</text><rect x="30" y="624" width="330" height="58" rx="18" fill="#E9ECDD"/><text x="195" y="661" font-size="18" fill="#183C34" font-weight="700" text-anchor="middle">无尽挑战</text><text x="195" y="716" font-size="12" fill="#78887E" font-weight="500" text-anchor="middle">个人练习纪录  1,250</text><text x="78" y="774" font-size="14" fill="#183C34" font-weight="600" text-anchor="middle">选关</text><text x="195" y="774" font-size="14" fill="#183C34" font-weight="600" text-anchor="middle">排行榜</text><text x="312" y="774" font-size="14" fill="#183C34" font-weight="600" text-anchor="middle">设置</text><path d="M132 755L132 784" stroke="#DCDDCB" stroke-width="1" stroke-linecap="round"/><path d="M258 755L258 784" stroke="#DCDDCB" stroke-width="1" stroke-linecap="round"/></g></svg>