<svg xmlns="http://www.w3.org/2000/svg" width="390" height="844" viewBox="0 0 390 844"><title>三块选两块 · levels</title><defs><filter id="shadow" x="-35%" y="-35%" width="170%" height="180%"><feDropShadow dx="0" dy="10" stdDeviation="10" flood-color="#284537" flood-opacity=".09"/></filter><pattern id="speckles" width="42" height="42" patternUnits="userSpaceOnUse"><circle cx="11" cy="23" r=".65" fill="#CABFA9" opacity=".3"/></pattern></defs><rect width="390" height="844" fill="#F7F2E8"/><rect width="390" height="844" fill="url(#speckles)"/><g font-family="Inter, PingFang SC, Microsoft YaHei, sans-serif"><rect x="20" y="22" width="46" height="46" rx="15" fill="#EBEDE2"/><path d="M47 36l-8 8 8 8" fill="none" stroke="#183C34" stroke-width="2.5" stroke-linecap="round" stroke-linejoin="round"/><text x="195" y="54" font-size="19" fill="#183C34" font-weight="700" text-anchor="middle">选择关卡</text><text x="30" y="123" font-size="25" fill="#183C34" font-weight="800" text-anchor="start">一步一步，留出余地。</text><text x="30" y="155" font-size="13" fill="#78887E" font-weight="500" text-anchor="start">已通关 3 / 30  ·  已收集 8 颗星</text><text x="30" y="217" font-size="12" fill="#78887E" font-weight="700" text-anchor="start" letter-spacing="1">01 — 10</text><text x="30" y="247" font-size="21" fill="#183C34" font-weight="750" text-anchor="start">初识积木</text><rect x="30" y="277" width="58" height="73" rx="16" fill="#FFFFFF"/><text x="59" y="311" font-size="20" fill="#183C34" font-weight="750" text-anchor="middle">01</text><polygon points="47.0,327.8 48.225,330.6 51.2,330.95 48.925,333.05 49.625,335.85 47.0,334.275 44.375,335.85 45.075,333.05 42.8,330.95 45.775,330.6" fill="#E8BE55"/><polygon points="59.0,327.8 60.225,330.6 63.2,330.95 60.925,333.05 61.625,335.85 59.0,334.275 56.375,335.85 57.075,333.05 54.8,330.95 57.775,330.6" fill="#E8BE55"/><polygon points="71.0,327.8 72.225,330.6 75.2,330.95 72.925,333.05 73.625,335.85 71.0,334.275 68.375,335.85 69.075,333.05 66.8,330.95 69.775,330.6" fill="#E8BE55"/><rect x="98" y="277" width="58" height="73" rx="16" fill="#FFFFFF"/><text x="127" y="311" font-size="20" fill="#183C34" font-weight="750" text-anchor="middle">02</text><polygon points="115.0,327.8 116.225,330.6 119.2,330.95 116.925,333.05 117.625,335.85 115.0,334.275 112.375,335.85 113.075,333.05 110.8,330.95 113.775,330.6" fill="#E8BE55"/><polygon points="127.0,327.8 128.225,330.6 131.2,330.95 128.925,333.05 129.625,335.85 127.0,334.275 124.375,335.85 125.075,333.05 122.8,330.95 125.775,330.6" fill="#E8BE55"/><polygon points="139.0,327.8 140.225,330.6 143.2,330.95 140.925,333.05 141.625,335.85 139.0,334.275 136.375,335.85 137.075,333.05 134.8,330.95 137.775,330.6" fill="#E8BE55"/><rect x="166" y="277" width="58" height="73" rx="16" fill="#FFFFFF"/><text x="195" y="311" font-size="20" fill="#183C34" font-weight="750" text-anchor="middle">03</text><polygon points="183.0,327.8 184.225,330.6 187.2,330.95 184.925,333.05 185.625,335.85 183.0,334.275 180.375,335.85 181.075,333.05 178.8,330.95 181.775,330.6" fill="#E8BE55"/><polygon points="195.0,327.8 196.225,330.6 199.2,330.95 196.925,333.05 197.625,335.85 195.0,334.275 192.375,335.85 193.075,333.05 190.8,330.95 193.775,330.6" fill="#E8BE55"/><polygon points="207.0,327.8 208.225,330.6 211.2,330.95 208.925,333.05 209.625,335.85 207.0,334.275 204.375,335.85 205.075,333.05 202.8,330.95 205.775,330.6" fill="#DCE0D3"/><rect x="234" y="277" width="58" height="73" rx="16" fill="#183C34"/><text x="263" y="311" font-size="20" fill="white" font-weight="750" text-anchor="middle">04</text><text x="263" y="334" font-size="10" fill="#DCE6C6" font-weight="600" text-anchor="middle">继续</text><rect x="302" y="277" width="58" height="73" rx="16" fill="#EDEDDD"/><text x="331" y="309" font-size="20" fill="#A6B1A3" font-weight="700" text-anchor="middle">05</text><path d="M326 327v-4a5 5 0 0 1 10 0v4" fill="none" stroke="#A6B1A3" stroke-width="2"/><rect x="324" y="326" width="14" height="11" rx="3" fill="#A6B1A3"/><rect x="30" y="372" width="58" height="73" rx="16" fill="#EDEDDD"/><text x="59" y="404" font-size="20" fill="#A6B1A3" font-weight="700" text-anchor="middle">06</text><path d="M54 422v-4a5 5 0 0 1 10 0v4" fill="none" stroke="#A6B1A3" stroke-width="2"/><rect x="52" y="421" width="14" height="11" rx="3" fill="#A6B1A3"/><rect x="98" y="372" width="58" height="73" rx="16" fill="#EDEDDD"/><text x="127" y="404" font-size="20" fill="#A6B1A3" font-weight="700" text-anchor="middle">07</text><path d="M122 422v-4a5 5 0 0 1 10 0v4" fill="none" stroke="#A6B1A3" stroke-width="2"/><rect x="120" y="421" width="14" height="11" rx="3" fill="#A6B1A3"/><rect x="166" y="372" width="58" height="73" rx="16" fill="#EDEDDD"/><text x="195" y="404" font-size="20" fill="#A6B1A3" font-weight="700" text-anchor="middle">08</text><path d="M190 422v-4a5 5 0 0 1 10 0v4" fill="none" stroke="#A6B1A3" stroke-width="2"/><rect x="188" y="421" width="14" height="11" rx="3" fill="#A6B1A3"/><rect x="234" y="372" width="58" height="73" rx="16" fill="#EDEDDD"/><text x="263" y="404" font-size="20" fill="#A6B1A3" font-weight="700" text-anchor="middle">09</text><path d="M258 422v-4a5 5 0 0 1 10 0v4" fill="none" stroke="#A6B1A3" stroke-width="2"/><rect x="256" y="421" width="14" height="11" rx="3" fill="#A6B1A3"/><rect x="302" y="372" width="58" height="73" rx="16" fill="#EDEDDD"/><text x="331" y="404" font-size="20" fill="#A6B1A3" font-weight="700" text-anchor="middle">10</text><path d="M326 422v-4a5 5 0 0 1 10 0v4" fill="none" stroke="#A6B1A3" stroke-width="2"/><rect x="324" y="421" width="14" height="11" rx="3" fill="#A6B1A3"/><text x="30" y="515" font-size="12" fill="#78887E" font-weight="700" text-anchor="start" letter-spacing="1">11 — 20</text><text x="30" y="545" font-size="21" fill="#183C34" font-weight="750" text-anchor="start">取舍之间</text><rect x="30" y="575" width="58" height="73" rx="16" fill="#EDEDDD"/><text x="59" y="609" font-size="20" fill="#A6B1A3" font-weight="700" text-anchor="middle">11</text><path d="M54 627v-4a5 5 0 0 1 10 0v4" fill="none" stroke="#A6B1A3" stroke-width="2"/><rect x="52" y="626" width="14" height="11" rx="3" fill="#A6B1A3"/><rect x="98" y="575" width="58" height="73" rx="16" fill="#EDEDDD"/><text x="127" y="609" font-size="20" fill="#A6B1A3" font-weight="700" text-anchor="middle">12</text><path d="M122 627v-4a5 5 0 0 1 10 0v4" fill="none" stroke="#A6B1A3" stroke-width="2"/><rect x="120" y="626" width="14" height="11" rx="3" fill="#A6B1A3"/><rect x="166" y="575" width="58" height="73" rx="16" fill="#EDEDDD"/><text x="195" y="609" font-size="20" fill="#A6B1A3" font-weight="700" text-anchor="middle">13</text><path d="M190 627v-4a5 5 0 0 1 10 0v4" fill="none" stroke="#A6B1A3" stroke-width="2"/><rect x="188" y="626" width="14" height="11" rx="3" fill="#A6B1A3"/><rect x="234" y="575" width="58" height="73" rx="16" fill="#EDEDDD"/><text x="263" y="609" font-size="20" fill="#A6B1A3" font-weight="700" text-anchor="middle">14</text><path d="M258 627v-4a5 5 0 0 1 10 0v4" fill="none" stroke="#A6B1A3" stroke-width="2"/><rect x="256" y="626" width="14" height="11" rx="3" fill="#A6B1A3"/><rect x="302" y="575" width="58" height="73" rx="16" fill="#EDEDDD"/><text x="331" y="609" font-size="20" fill="#A6B1A3" font-weight="700" text-anchor="middle">15</text><path d="M326 627v-4a5 5 0 0 1 10 0v4" fill="none" stroke="#A6B1A3" stroke-width="2"/><rect x="324" y="626" width="14" height="11" rx="3" fill="#A6B1A3"/><rect x="30" y="670" width="58" height="73" rx="16" fill="#EDEDDD"/><text x="59" y="704" font-size="20" fill="#A6B1A3" font-weight="700" text-anchor="middle">16</text><path d="M54 722v-4a5 5 0 0 1 10 0v4" fill="none" stroke="#A6B1A3" stroke-width="2"/><rect x="52" y="721" width="14" height="11" rx="3" fill="#A6B1A3"/><rect x="98" y="670" width="58" height="73" rx="16" fill="#EDEDDD"/><text x="127" y="704" font-size="20" fill="#A6B1A3" font-weight="700" text-anchor="middle">17</text><path d="M122 722v-4a5 5 0 0 1 10 0v4" fill="none" stroke="#A6B1A3" stroke-width="2"/><rect x="120" y="721" width="14" height="11" rx="3" fill="#A6B1A3"/><rect x="166" y="670" width="58" height="73" rx="16" fill="#EDEDDD"/><text x="195" y="704" font-size="20" fill="#A6B1A3" font-weight="700" text-anchor="middle">18</text><path d="M190 722v-4a5 5 0 0 1 10 0v4" fill="none" stroke="#A6B1A3" stroke-width="2"/><rect x="188" y="721" width="14" height="11" rx="3" fill="#A6B1A3"/><rect x="234" y="670" width="58" height="73" rx="16" fill="#EDEDDD"/><text x="263" y="704" font-size="20" fill="#A6B1A3" font-weight="700" text-anchor="middle">19</text><path d="M258 722v-4a5 5 0 0 1 10 0v4" fill="none" stroke="#A6B1A3" stroke-width="2"/><rect x="256" y="721" width="14" height="11" rx="3" fill="#A6B1A3"/><rect x="302" y="670" width="58" height="73" rx="16" fill="#EDEDDD"/><text x="331" y="704" font-size="20" fill="#A6B1A3" font-weight="700" text-anchor="middle">20</text><path d="M326 722v-4a5 5 0 0 1 10 0v4" fill="none" stroke="#A6B1A3" stroke-width="2"/><rect x="324" y="721" width="14" height="11" rx="3" fill="#A6B1A3"/><text x="195" y="793" font-size="12" fill="#78887E" font-weight="500" text-anchor="middle">向上滑动，发现更多挑战</text></g></svg>